<svg width="31" height="31" viewBox="0 0 31 31" fill="none" xmlns="http://www.w3.org/2000/svg">
<path d="M15.5002 0.0410156C19.6889 0.0410156 20.2115 0.0564322 21.8549 0.133516C23.4968 0.210599 24.6145 0.468057 25.5981 0.850391C26.6156 1.24197 27.4727 1.77231 28.3299 2.62793C29.1138 3.39861 29.7204 4.33084 30.1075 5.35977C30.4882 6.34181 30.7472 7.46106 30.8243 9.10293C30.8968 10.7463 30.9168 11.269 30.9168 15.4577C30.9168 19.6464 30.9014 20.169 30.8243 21.8124C30.7472 23.4543 30.4882 24.572 30.1075 25.5556C29.7215 26.5851 29.1148 27.5176 28.3299 28.2874C27.559 29.0711 26.6268 29.6776 25.5981 30.065C24.616 30.4458 23.4968 30.7048 21.8549 30.7819C20.2115 30.8543 19.6889 30.8744 15.5002 30.8744C11.3115 30.8744 10.7888 30.8589 9.14541 30.7819C7.50354 30.7048 6.38583 30.4458 5.40225 30.065C4.37292 29.6787 3.44052 29.0721 2.67041 28.2874C1.88633 27.5169 1.27972 26.5846 0.892871 25.5556C0.510538 24.5736 0.253079 23.4543 0.175996 21.8124C0.103538 20.169 0.0834961 19.6464 0.0834961 15.4577C0.0834961 11.269 0.0989127 10.7463 0.175996 9.10293C0.253079 7.45952 0.510538 6.34335 0.892871 5.35977C1.27865 4.33021 1.8854 3.39772 2.67041 2.62793C3.44074 1.84358 4.37307 1.23693 5.40225 0.850391C6.38583 0.468057 7.502 0.210599 9.14541 0.133516C10.7888 0.0610572 11.3115 0.0410156 15.5002 0.0410156ZM15.5002 7.74935C13.4558 7.74935 11.4951 8.56147 10.0495 10.0071C8.60396 11.4527 7.79183 13.4133 7.79183 15.4577C7.79183 17.5021 8.60396 19.4627 10.0495 20.9083C11.4951 22.3539 13.4558 23.166 15.5002 23.166C17.5445 23.166 19.5052 22.3539 20.9508 20.9083C22.3964 19.4627 23.2085 17.5021 23.2085 15.4577C23.2085 13.4133 22.3964 11.4527 20.9508 10.0071C19.5052 8.56147 17.5445 7.74935 15.5002 7.74935ZM25.521 7.36393C25.521 6.85284 25.318 6.36268 24.9566 6.00128C24.5952 5.63988 24.105 5.43685 23.5939 5.43685C23.0828 5.43685 22.5927 5.63988 22.2313 6.00128C21.8699 6.36268 21.6668 6.85284 21.6668 7.36393C21.6668 7.87503 21.8699 8.36519 22.2313 8.72659C22.5927 9.08799 23.0828 9.29102 23.5939 9.29102C24.105 9.29102 24.5952 9.08799 24.9566 8.72659C25.318 8.36519 25.521 7.87503 25.521 7.36393ZM15.5002 10.8327C16.7268 10.8327 17.9032 11.32 18.7705 12.1873C19.6379 13.0547 20.1252 14.2311 20.1252 15.4577C20.1252 16.6843 19.6379 17.8607 18.7705 18.7281C17.9032 19.5954 16.7268 20.0827 15.5002 20.0827C14.2735 20.0827 13.0971 19.5954 12.2298 18.7281C11.3624 17.8607 10.8752 16.6843 10.8752 15.4577C10.8752 14.2311 11.3624 13.0547 12.2298 12.1873C13.0971 11.32 14.2735 10.8327 15.5002 10.8327Z" fill="black"/>
</svg>
