<svg width="30" height="29" viewBox="0 0 30 29" fill="none" xmlns="http://www.w3.org/2000/svg">
<path d="M6.69987 3.58292C6.69946 4.40067 6.37422 5.18477 5.79569 5.76272C5.21717 6.34066 4.43275 6.66512 3.615 6.66471C2.79724 6.66431 2.01315 6.33906 1.4352 5.76054C0.857253 5.18201 0.532795 4.39759 0.533204 3.57984C0.533612 2.76209 0.858855 1.97799 1.43738 1.40004C2.01591 0.822096 2.80033 0.497638 3.61808 0.498047C4.43583 0.498456 5.21993 0.823698 5.79787 1.40222C6.37582 1.98075 6.70028 2.76517 6.69987 3.58292ZM6.79237 8.94792H0.625703V28.2496H6.79237V8.94792ZM16.5357 8.94792H10.3999V28.2496H16.474V18.1208C16.474 12.4783 23.8278 11.9542 23.8278 18.1208V28.2496H29.9174V16.0242C29.9174 6.51209 19.0332 6.86667 16.474 11.5379L16.5357 8.94792Z" fill="black"/>
</svg>
