<svg width="33" height="27" viewBox="0 0 33 27" fill="none" xmlns="http://www.w3.org/2000/svg">
<path d="M32.167 3.76167C30.99 4.28228 29.7419 4.62419 28.4639 4.77608C29.8109 3.97046 30.8191 2.70256 31.3005 1.20867C30.0364 1.961 28.6504 2.48825 27.2059 2.77346C26.2356 1.73527 24.9494 1.04674 23.5474 0.814903C22.1454 0.583069 20.7061 0.820925 19.4532 1.49149C18.2004 2.16206 17.2041 3.22776 16.6194 4.52293C16.0347 5.8181 15.8943 7.27016 16.22 8.65338C13.6563 8.52488 11.1484 7.85868 8.85894 6.69802C6.5695 5.53737 4.54974 3.9082 2.93079 1.91629C2.35774 2.90057 2.05659 4.01948 2.05821 5.15842C2.05821 7.39383 3.19596 9.36871 4.92571 10.525C3.90205 10.4927 2.90093 10.2163 2.00579 9.71867V9.79883C2.0061 11.2876 2.52127 12.7305 3.46397 13.8828C4.40667 15.0351 5.71886 15.8259 7.17808 16.1212C6.22782 16.3787 5.23143 16.4167 4.26433 16.2322C4.67575 17.5137 5.47763 18.6344 6.5577 19.4375C7.63777 20.2406 8.94195 20.6858 10.2876 20.7108C8.9502 21.7611 7.41885 22.5376 5.78115 22.9958C4.14344 23.4539 2.43149 23.5848 0.743164 23.3809C3.69036 25.2763 7.12119 26.2825 10.6252 26.2792C22.4853 26.2792 28.9711 16.4542 28.9711 7.93342C28.9711 7.65592 28.9634 7.37533 28.951 7.10092C30.2135 6.18851 31.303 5.05824 32.1685 3.76321L32.167 3.76167Z" fill="black"/>
</svg>
