<svg width="30" height="31" viewBox="0 0 30 31" fill="none" xmlns="http://www.w3.org/2000/svg">
<path d="M29.9983 22.8667V28.76C29.9985 29.182 29.8387 29.5883 29.551 29.897C29.2634 30.2057 28.8693 30.3938 28.4484 30.4233C27.7201 30.4733 27.1252 30.5 26.6652 30.5C11.9377 30.5 0 18.5617 0 3.83333C0 3.37333 0.0249986 2.77833 0.0766624 2.05C0.106198 1.62907 0.294286 1.23502 0.602972 0.947348C0.911659 0.659678 1.31796 0.499809 1.7399 0.5H7.63291C7.83963 0.499791 8.03905 0.576432 8.19243 0.715034C8.3458 0.853636 8.44219 1.0443 8.46286 1.25C8.50119 1.63333 8.53619 1.93833 8.56952 2.17C8.90073 4.48154 9.57947 6.72972 10.5827 8.83833C10.7411 9.17167 10.6377 9.57 10.3378 9.78333L6.74129 12.3533C8.94026 17.4774 13.0235 21.5609 18.1473 23.76L20.7139 20.17C20.8188 20.0233 20.9718 19.9181 21.1463 19.8728C21.3208 19.8274 21.5057 19.8447 21.6688 19.9217C23.7771 20.9231 26.0245 21.6002 28.3351 21.93C28.5667 21.9633 28.8717 22 29.2517 22.0367C29.4571 22.0577 29.6473 22.1543 29.7856 22.3076C29.9238 22.461 29.9986 22.6602 29.9983 22.8667Z" fill="#BB5D06"/>
</svg>
