<svg width="32" height="32" viewBox="0 0 32 32" fill="none" xmlns="http://www.w3.org/2000/svg">
<path d="M21.6567 23.5419C22.1774 24.0626 23.0217 24.0626 23.5424 23.5419C24.0631 23.0212 24.0631 22.177 23.5424 21.6563L17.8855 15.9994L23.5424 10.3426C24.0631 9.82188 24.0631 8.97766 23.5424 8.45696C23.0217 7.93626 22.1774 7.93626 21.6567 8.45696L15.9999 14.1138L10.343 8.45693C9.82234 7.93623 8.97812 7.93623 8.45742 8.45693C7.93672 8.97763 7.93672 9.82185 8.45742 10.3425L14.1143 15.9994L8.45742 21.6563C7.93672 22.177 7.93672 23.0212 8.45742 23.5419C8.97812 24.0626 9.82234 24.0626 10.343 23.5419L15.9999 17.885L21.6567 23.5419Z" fill="#1E202C"/>
</svg>
