<svg width="34" height="31" viewBox="0 0 34 31" fill="none" xmlns="http://www.w3.org/2000/svg">
<path d="M1.7 0.5H32.3C32.7509 0.5 33.1833 0.675595 33.5021 0.988155C33.8209 1.30072 34 1.72464 34 2.16667V28.8333C34 29.2754 33.8209 29.6993 33.5021 30.0118C33.1833 30.3244 32.7509 30.5 32.3 30.5H1.7C1.24913 30.5 0.81673 30.3244 0.497918 30.0118C0.179107 29.6993 0 29.2754 0 28.8333V2.16667C0 1.72464 0.179107 1.30072 0.497918 0.988155C0.81673 0.675595 1.24913 0.5 1.7 0.5ZM17.102 14.9717L6.2016 5.89667L4.0001 8.43667L17.1241 19.3617L30.0118 8.42833L27.7882 5.90667L17.102 14.9717Z" fill="#BB5D06"/>
</svg>
