<svg width="40" height="40" viewBox="0 0 18 18" fill="none" xmlns="http://www.w3.org/2000/svg">
<path d="M16.2262 11.0975H14.129V2.70898H16.2262C16.6122 2.70898 16.9252 3.02196 16.9252 3.40803V10.3984C16.9252 10.7845 16.6122 11.0975 16.2262 11.0975ZM12.5262 12.0013L8.05198 16.4755C7.92902 16.5985 7.7343 16.6123 7.59515 16.5079L6.99916 16.061C6.66033 15.8069 6.50765 15.3738 6.61214 14.9634L7.41835 11.7965H2.94436C2.17222 11.7965 1.54628 11.1706 1.54628 10.3984V8.92745C1.54628 8.74479 1.58206 8.56395 1.65158 8.39513L3.81468 3.14187C3.92253 2.87994 4.1778 2.70898 4.46107 2.70898H12.0319C12.418 2.70898 12.731 3.02196 12.731 3.40803V11.507C12.731 11.6924 12.6573 11.8702 12.5262 12.0013Z" fill="#A4A4A4"/>
</svg>
