<svg width="40" height="40" viewBox="0 0 18 17" fill="none" xmlns="http://www.w3.org/2000/svg">
<path d="M16.0319 10.4862H13.9347V2.09766H16.0319C16.418 2.09766 16.7309 2.41063 16.7309 2.7967V9.78712C16.7309 10.1732 16.418 10.4862 16.0319 10.4862ZM12.3319 11.39L7.85769 15.8642C7.73473 15.9871 7.54001 16.001 7.40086 15.8966L6.80487 15.4496C6.46604 15.1955 6.31336 14.7625 6.41785 14.3521L7.22406 11.1852H2.75007C1.97793 11.1852 1.35199 10.5593 1.35199 9.78712V8.31612C1.35199 8.13346 1.38777 7.95262 1.45729 7.7838L3.62039 2.53054C3.72824 2.26861 3.98351 2.09766 4.26678 2.09766H11.8376C12.2237 2.09766 12.5367 2.41063 12.5367 2.7967V10.8957C12.5367 11.081 12.463 11.2589 12.3319 11.39Z" fill="#BB5D06"/>
</svg>
