<svg width="30" height="37" viewBox="0 0 30 37" fill="none" xmlns="http://www.w3.org/2000/svg">
<path d="M25.6067 25.9558L15 36.5L4.39334 25.9558C2.29557 23.8703 0.866977 21.2133 0.288214 18.3207C-0.290549 15.4282 0.00651141 12.4299 1.14183 9.70519C2.27715 6.98045 4.19974 4.65157 6.66647 3.01306C9.1332 1.37455 12.0333 0.5 15 0.5C17.9667 0.5 20.8668 1.37455 23.3335 3.01306C25.8003 4.65157 27.7228 6.98045 28.8582 9.70519C29.9935 12.4299 30.2906 15.4282 29.7118 18.3207C29.133 21.2133 27.7044 23.8703 25.6067 25.9558ZM15 18.7253C15.8841 18.7253 16.7319 18.3761 17.357 17.7547C17.9821 17.1333 18.3333 16.2904 18.3333 15.4116C18.3333 14.5327 17.9821 13.6899 17.357 13.0684C16.7319 12.447 15.8841 12.0979 15 12.0979C14.1159 12.0979 13.2681 12.447 12.643 13.0684C12.0179 13.6899 11.6667 14.5327 11.6667 15.4116C11.6667 16.2904 12.0179 17.1333 12.643 17.7547C13.2681 18.3761 14.1159 18.7253 15 18.7253Z" fill="#BB5D06"/>
</svg>
