<svg width="20" height="20" viewBox="0 0 20 20" fill="none" xmlns="http://www.w3.org/2000/svg">
<g id="memory:target" clipPath="url(#clip0_3900_10420)">
<path id="Vector" d="M10.9091 11.8192H9.09091V10.9102H8.18182V9.09197H9.09091V8.18288H10.9091V9.09197H11.8182V10.9102H10.9091V11.8192ZM12.7273 15.4556H7.27272V14.5465H6.36363V13.6374H5.45454V12.7283H4.54545V7.27379H5.45454V6.3647H6.36363V5.45561H7.27272V4.54652H12.7273V5.45561H13.6364V6.3647H14.5455V7.27379H15.4545V12.7283H14.5455V13.6374H13.6364V14.5465H12.7273V15.4556ZM13.6364 19.092H6.36363V18.1829H4.54545V17.2738H3.63636V16.3647H2.72727V15.4556H1.81818V13.6374H0.909088V6.3647H1.81818V4.54652H2.72727V3.63743H3.63636V2.72834H4.54545V1.81925H6.36363V0.910156H13.6364V1.81925H15.4545V2.72834H16.3636V3.63743H17.2727V4.54652H18.1818V6.3647H19.0909V13.6374H18.1818V15.4556H17.2727V16.3647H16.3636V17.2738H15.4545V18.1829H13.6364V19.092ZM11.8182 13.6374V12.7283H12.7273V11.8192H13.6364V8.18288H12.7273V7.27379H11.8182V6.3647H8.18182V7.27379H7.27272V8.18288H6.36363V11.8192H7.27272V12.7283H8.18182V13.6374H11.8182ZM12.7273 17.2738V16.3647H14.5455V15.4556H15.4545V14.5465H16.3636V12.7283H17.2727V7.27379H16.3636V5.45561H15.4545V4.54652H14.5455V3.63743H12.7273V2.72834H7.27272V3.63743H5.45454V4.54652H4.54545V5.45561H3.63636V7.27379H2.72727V12.7283H3.63636V14.5465H4.54545V15.4556H5.45454V16.3647H7.27272V17.2738H12.7273Z" fill="#BB5D06"/>
</g>
<defs>
<clipPath id="clip0_3900_10420">
<rect width="20" height="20" fill="white"/>
</clipPath>
</defs>
</svg>
