<svg width="20" height="20" viewBox="0 0 20 20" fill="none" xmlns="http://www.w3.org/2000/svg">
<g id="noto:2nd-place-medal">
<path id="Vector" d="M10.7957 0.661435C10.627 0.811435 9.31445 3.41612 9.31445 3.41612L8.33789 7.35519L12.1379 7.00675C12.1379 7.00675 15.2988 1.12862 15.3629 0.992685C15.477 0.74581 15.5379 0.644247 15.102 0.644247C14.666 0.642685 10.9535 0.52081 10.7957 0.661435Z" fill="#BB5D06"/>
<path id="Vector_2" d="M12.7623 6.7637C12.5733 6.66213 7.00452 6.57463 6.87327 6.7637C6.75452 6.93557 6.82171 7.83713 6.86702 7.94495C6.94827 8.13245 8.74671 8.94963 8.74671 8.94963L8.71233 9.32151C8.71233 9.32151 8.85921 9.35901 9.90452 9.35901C10.9498 9.35901 11.1561 9.30588 11.1561 9.30588L11.1592 8.96995C11.1592 8.96995 12.778 8.18245 12.8592 8.07307C12.928 7.98245 12.9514 6.86526 12.7623 6.7637ZM11.1045 8.1887C11.1045 8.1887 11.1561 7.95901 11.0483 7.90588C10.9405 7.8512 9.09046 7.8762 8.94358 7.88401C8.79671 7.89182 8.79671 8.15432 8.79671 8.15432L7.60921 7.44651V7.33088L12.0311 7.36213L12.0389 7.49338L11.1045 8.1887Z" fill="#CECDD2"/>
<path id="Vector_3" d="M9.25957 7.99609C9.1127 7.99609 9.02832 8.14922 9.02832 8.41328C9.02832 8.66016 9.1127 8.86797 9.29863 8.85234C9.45176 8.83984 9.50488 8.60547 9.49082 8.39766C9.47676 8.15078 9.44551 7.99609 9.25957 7.99609Z" fill="#FDFFFF"/>
<path id="Vector_4" d="M4.52637 14.3564C4.52637 18.1001 7.97168 19.6892 10.2232 19.622C12.8467 19.5439 15.6154 17.5533 15.4357 13.9814C15.2654 10.597 12.3951 9.09233 9.92949 9.10952C7.06387 9.1314 4.52637 11.0861 4.52637 14.3564Z" fill="#CECDD2"/>
<path id="Vector_5" d="M10.0829 18.9273C10.0438 18.9273 10.0032 18.9273 9.96412 18.9258C8.79225 18.8867 7.63443 18.393 6.78756 17.5727C5.88131 16.6945 5.38443 15.507 5.39068 14.2305C5.40475 11.1133 8.12975 9.66797 9.97818 9.66797H9.99381C12.4985 9.67891 14.5547 11.6258 14.6126 14.2648C14.6376 15.4398 14.1563 16.6727 13.2126 17.6008C12.3313 18.4648 11.1626 18.9273 10.0829 18.9273ZM9.97506 10.1867C8.31725 10.1867 5.86568 11.543 5.85943 14.2305C5.85475 16.2398 7.411 18.3055 10.0032 18.393C10.9907 18.4242 12.0079 18.0461 12.8297 17.2383C13.6829 16.3992 14.1626 15.318 14.1454 14.2711C14.1047 12.0008 12.2485 10.1945 9.99537 10.1836C9.99225 10.1836 9.97975 10.1867 9.97506 10.1867Z" fill="#9B9B9D"/>
<path id="Vector_6" d="M9.07642 9.60623C8.9686 9.45779 7.86392 9.49998 6.67485 10.5234C5.4936 11.5406 5.31704 12.6656 5.52954 12.725C5.77173 12.7922 6.06704 11.7047 7.08735 10.7906C8.02485 9.95467 9.29048 9.90154 9.07642 9.60623ZM13.7311 13.7078C13.3545 13.7609 13.7452 14.889 12.8717 16.1515C12.1139 17.2469 11.2545 17.6437 11.3545 17.8844C11.4889 18.2062 12.8655 17.4047 13.503 16.0984C14.0795 14.9172 14.0108 13.6687 13.7311 13.7078Z" fill="#FEFFFA"/>
<path id="Vector_7" d="M3.98627 0.581559C3.88784 0.672184 7.6519 7.37531 7.6519 7.37531C7.6519 7.37531 8.28315 7.45656 9.69252 7.46906C11.1019 7.48156 11.8003 7.38781 11.8003 7.38781C11.8003 7.38781 8.87377 0.648747 8.69877 0.581559C8.61283 0.547184 7.45346 0.534684 6.32065 0.522184C5.18627 0.508122 4.08002 0.494059 3.98627 0.581559Z" fill="#EC6B40"/>
<path id="Vector_8" d="M8.88328 13.4923C9.04578 13.4939 9.1911 13.2736 9.32547 13.1392C9.61141 12.8517 9.91141 12.6236 10.2536 12.9329C11.0942 13.697 9.40672 14.472 8.76609 15.5314C8.28797 16.322 8.1911 16.9298 8.32391 17.0923C8.45672 17.2548 11.6895 17.247 11.7333 17.1657C11.777 17.0845 11.8223 16.0017 11.7473 15.9501C11.6723 15.8986 10.0833 15.9282 10.0833 15.9282C10.0833 15.9282 10.2161 15.6189 10.7614 15.147C11.3598 14.6298 11.8395 13.9189 11.7114 13.0782C11.4458 11.3407 9.69578 11.2767 8.93797 11.8814C8.19891 12.4704 8.35828 13.4861 8.88328 13.4923Z" fill="#9B9B9D"/>
</g>
</svg>
