<svg width="20" height="20" viewBox="0 0 20 20" fill="none" xmlns="http://www.w3.org/2000/svg">
<path d="M10.7957 0.661435C10.627 0.811435 9.31445 3.41612 9.31445 3.41612L8.33789 7.35519L12.1379 7.00675C12.1379 7.00675 15.2988 1.12862 15.3629 0.992685C15.477 0.74581 15.5379 0.644247 15.102 0.644247C14.666 0.642685 10.9535 0.52081 10.7957 0.661435Z" fill="#BB5D06"/>
<path d="M12.7627 6.7637C12.5736 6.66213 7.00487 6.57463 6.87362 6.7637C6.75487 6.93557 6.77206 7.72151 6.82987 7.82307C6.88768 7.92463 8.75956 8.79495 8.75956 8.79495L8.758 9.11213C8.758 9.11213 8.86112 9.36057 9.90487 9.36057C10.9486 9.36057 11.0564 9.14963 11.0564 9.14963L11.0658 8.82932C11.0658 8.82932 12.7049 8.01057 12.7908 7.9387C12.8783 7.86526 12.9517 6.86526 12.7627 6.7637ZM11.0471 8.06526C11.0471 8.06526 11.0424 7.84651 10.9346 7.79182C10.8267 7.73713 9.09081 7.74651 8.94393 7.75432C8.79706 7.76213 8.79706 8.02463 8.79706 8.02463L7.60956 7.44651V7.33088L12.0314 7.36213L12.0392 7.49338L11.0471 8.06526Z" fill="#B08D57"/>
<path d="M9.25957 7.99609C9.1127 7.99609 9.02832 8.14922 9.02832 8.41328C9.02832 8.66016 9.1127 8.86797 9.29863 8.85234C9.45176 8.83984 9.50488 8.60547 9.49082 8.39766C9.47676 8.15078 9.44551 7.99609 9.25957 7.99609Z" fill="#FDFFFF"/>
<path d="M4.52832 14.1736C4.52832 17.9173 7.9127 19.5845 10.1627 19.5048C12.6439 19.4158 15.6158 17.4814 15.4361 13.9095C15.2658 10.5251 12.4189 8.92045 9.95332 8.93764C7.0877 8.95795 4.52832 10.9033 4.52832 14.1736Z" fill="#B08D57"/>
<path d="M10.0829 18.8531C10.0438 18.8531 10.0032 18.8531 9.96412 18.8516C8.79225 18.8125 7.63443 18.3188 6.78756 17.4984C5.88131 16.6203 5.38443 15.4328 5.39068 14.1562C5.40475 11.0391 8.12975 9.59375 9.97818 9.59375H9.99381C12.4985 9.60469 14.5547 11.5516 14.6126 14.1906C14.6376 15.3656 14.1563 16.5984 13.2126 17.5266C12.3313 18.3906 11.1626 18.8531 10.0829 18.8531ZM9.97506 10.1125C8.31725 10.1125 5.86568 11.4688 5.85943 14.1562C5.85475 16.1656 7.411 18.2312 10.0032 18.3188C10.9907 18.35 12.0079 17.9719 12.8297 17.1641C13.6829 16.325 14.1626 15.2438 14.1454 14.1969C14.1079 11.9266 12.2516 10.1203 9.9985 10.1109C9.99225 10.1109 9.97975 10.1125 9.97506 10.1125Z" fill="#A26F1F"/>
<path d="M9.03467 9.47005C8.92686 9.32162 7.70498 9.34974 6.55029 10.4779C5.43623 11.5669 5.31592 12.5935 5.52998 12.6529C5.77217 12.7201 6.06748 11.6326 7.08779 10.7185C8.02529 9.88099 9.25029 9.76537 9.03467 9.47005ZM13.7612 13.5122C13.3847 13.5654 13.7753 14.6935 12.9019 15.956C12.144 17.0513 11.2847 17.4482 11.3847 17.6888C11.519 18.0107 12.8956 17.2091 13.5331 15.9029C14.1112 14.7201 14.0425 13.4716 13.7612 13.5122Z" fill="#FEFFFA"/>
<path d="M3.98627 0.581559C3.88784 0.672184 7.6519 7.37531 7.6519 7.37531C7.6519 7.37531 8.28315 7.45656 9.69252 7.46906C11.1019 7.48156 11.8003 7.38781 11.8003 7.38781C11.8003 7.38781 8.87377 0.648747 8.69877 0.581559C8.61283 0.547184 7.45346 0.534684 6.32065 0.522184C5.18627 0.508122 4.08002 0.494059 3.98627 0.581559Z" fill="#C16B40"/>
<path d="M9.96825 16.8691C9.57892 16.8691 9.20558 16.8131 8.84825 16.7011C8.49092 16.5837 8.19758 16.4237 7.96825 16.2211L8.30425 15.4451C8.55492 15.6371 8.81358 15.7784 9.08025 15.8691C9.35225 15.9597 9.63758 16.0051 9.93625 16.0051C10.2989 16.0051 10.5736 15.9331 10.7603 15.7891C10.9469 15.6451 11.0403 15.4344 11.0403 15.1571C11.0403 14.8904 10.9469 14.6904 10.7603 14.5571C10.5789 14.4184 10.3123 14.3491 9.96025 14.3491H9.04825V13.5251H9.87225C10.1763 13.5251 10.4189 13.4504 10.6003 13.3011C10.7816 13.1517 10.8723 12.9464 10.8723 12.6851C10.8723 12.4397 10.7869 12.2531 10.6163 12.1251C10.4509 11.9971 10.2109 11.9331 9.89625 11.9331C9.33092 11.9331 8.83225 12.1251 8.40025 12.5091L8.06425 11.7411C8.29358 11.5277 8.57625 11.3624 8.91225 11.2451C9.25358 11.1277 9.61092 11.0691 9.98425 11.0691C10.5709 11.0691 11.0296 11.2024 11.3603 11.4691C11.6963 11.7304 11.8643 12.0957 11.8643 12.5651C11.8643 12.9011 11.7683 13.1917 11.5763 13.4371C11.3896 13.6771 11.1309 13.8371 10.8003 13.9171V13.8211C11.1896 13.8851 11.4909 14.0451 11.7043 14.3011C11.9229 14.5517 12.0323 14.8664 12.0323 15.2451C12.0323 15.7464 11.8483 16.1437 11.4803 16.4371C11.1123 16.7251 10.6083 16.8691 9.96825 16.8691Z" fill="#A26F1F"/>
</svg>
