<svg width="74" height="43" viewBox="0 0 74 43" fill="none" xmlns="http://www.w3.org/2000/svg">
<g id="AFRICAN PROVERB LOGO IDENTITY 1 (traced)" clipPath="url(#clip0_694_3889)">
<g id="Maroon">
<path id="Vector" d="M3.2918 17.6085C2.89678 18.9779 3.02846 25.0875 3.50248 26.9836C3.73949 27.9317 4.8192 30.5915 5.92525 32.8562C7.76867 36.7011 8.69038 39.2292 8.69038 40.4669C8.69038 40.8093 8.82205 40.9146 9.11173 40.8093C9.34874 40.7303 10.2178 40.6513 11.0868 40.6513H12.6406V29.8014C12.6406 23.8498 12.5879 19.0306 12.5352 19.0833C12.2982 19.294 11.6135 25.5089 11.1922 30.9075C10.9551 33.8833 10.7445 36.4114 10.7181 36.5167C10.5601 37.0698 9.40141 35.595 8.34803 33.5409C7.08397 31.1182 6.1886 28.6427 5.10888 24.8242C4.10817 21.1637 3.9765 20.5317 3.73949 18.6093C3.52881 17.0029 3.50248 16.8975 3.2918 17.6085Z" fill="#6B1515"/>
</g>
<g id="Red">
<path id="Vector_2" d="M20.62 2.36085C20.5409 2.59786 20.6726 3.41423 20.9096 4.17793C21.5943 6.41636 23.7011 7.78576 23.9118 6.17935C24.0698 5.15231 23.7538 4.46761 22.6214 3.17722C21.5153 1.88683 20.9096 1.64982 20.62 2.36085Z" fill="#C14015"/>
<path id="Vector_3" d="M20.8306 19.1886C20.6463 19.61 20.1986 21.348 19.8562 23.0071C19.1452 26.4306 18.7765 27.7737 18.2762 28.985C18.0655 29.4327 17.9075 29.8804 17.9075 29.9858C17.9075 30.3281 15.6691 34.9893 15.4847 35.0683C15.353 35.121 15.274 35.3053 15.274 35.4897C15.274 35.674 15.037 36.0427 14.7473 36.306C14.247 36.7537 14.2207 36.7537 13.9836 36.1217C13.852 35.7794 13.6676 32.0662 13.5623 27.9053C13.457 23.7445 13.2726 19.9523 13.1673 19.5046C13.0356 19.0306 12.9566 23.6128 12.9303 29.6434L12.9039 40.6512H14.326H15.7217L16.0377 39.0448C16.2221 38.1495 16.4854 37.0961 16.6434 36.7274C16.8014 36.3587 16.9594 35.99 16.9858 35.911C17.0121 35.832 17.7758 34.2256 18.7239 32.3559C19.6456 30.4598 20.4093 28.8797 20.4093 28.8007C20.4356 28.7217 20.6463 28.0107 20.8833 27.2206C21.4626 25.4036 21.6997 21.7431 21.3836 19.847L21.1466 18.3986L20.8306 19.1886Z" fill="#C14015"/>
</g>
<g id="Olive">
<path id="Vector_4" d="M5.42494 16.0548C5.13526 21.4797 5.53028 23.5075 7.95305 29.7224C8.76942 31.7502 9.53312 33.7516 9.6648 34.1993L9.95447 34.9893L10.0861 34.331C10.2968 33.4619 10.7445 27.089 10.9289 22.1381C11.0342 19.9786 11.2712 17.0028 11.4555 15.5544C11.6399 14.0797 11.7716 12.842 11.7452 12.8157C11.7189 12.7893 10.3232 12.684 8.63775 12.5786L5.58294 12.3943L5.42494 16.0548Z" fill="#6B9615"/>
</g>
<g id="Gray">
<path id="Vector_5" d="M13.2989 0.833454C16.9331 3.86192 17.0911 4.04627 16.6961 4.78363C16.5117 5.15232 16.3801 5.49466 16.4064 5.521C16.6434 5.70534 20.7516 5.86335 20.9886 5.67901C21.2519 5.521 21.2519 5.25765 21.0149 4.52029C20.7779 3.75659 20.5672 3.51957 19.9089 3.41424C19.4612 3.3089 18.0918 2.59787 16.8804 1.80783C15.2213 0.701781 14.4313 0.359432 13.7203 0.359432C12.7986 0.385767 12.7722 0.385767 13.2989 0.833454Z" fill="#C16B40"/>
<path id="Vector_6" d="M5.66191 4.57296C4.50319 4.83631 3.23913 5.07332 2.84412 5.07332C2.18575 5.09965 2.10675 5.20499 2.10675 6.02136C2.10675 6.99574 2.42276 7.15375 3.52881 6.70606C3.81849 6.60072 4.68753 6.60072 5.47757 6.7324C6.39928 6.8904 7.03131 6.86407 7.18931 6.70606C7.37365 6.52172 7.32098 6.36371 7.00497 6.25837C6.63629 6.10037 6.68896 6.02136 7.34732 5.60001C7.76867 5.33667 8.26903 4.88898 8.42703 4.5993C8.76938 3.9146 8.58504 3.9146 5.66191 4.57296Z" fill="#C16B40"/>
</g>
<g id="Red_2">
<path id="Vector_7" d="M5.21423 8.70746C4.34519 8.83913 3.68683 9.68184 3.68683 10.6562C3.68683 11.6043 4.23985 11.9993 5.76726 12.1573C7.00498 12.2626 7.03131 12.2626 7.21565 11.4199C7.50533 9.91885 7.4 8.86547 6.95231 8.68112C6.53096 8.52312 6.45195 8.52312 5.21423 8.70746Z" fill="#EC6B40"/>
<path id="Vector_8" d="M13.9046 8.73378L11.8505 8.81278V10.5245V12.2626L15.6164 12.1046C19.6982 11.9203 20.5936 11.6042 20.7516 10.3138C20.9359 8.83912 19.5402 8.5231 13.9046 8.73378Z" fill="#EC6B40"/>
</g>
<g id="Teal">
<path id="Vector_9" d="M0.421336 4.0989C-0.158023 4.91527 -0.158023 8.07541 0.421336 8.5231C0.763685 8.81278 0.921692 8.78644 1.36938 8.31242C1.81707 7.86473 1.94874 7.36438 2.02774 5.65263L2.15941 3.51954H1.47472C1.10603 3.51954 0.658347 3.75655 0.421336 4.0989Z" fill="#156BC1"/>
<path id="Vector_10" d="M16.2221 12.684L13.3779 12.763L13.5359 13.6057C13.8256 15.2384 14.1943 20.0313 14.484 25.3772C14.8527 33.0142 15.0107 34.6206 15.3267 34.4363C15.7217 34.1993 16.4854 32.2505 18.0655 27.6156C19.1979 24.2711 19.5665 22.8227 19.7772 20.637C20.0669 17.6612 19.8036 12.6576 19.3559 12.6313C19.2242 12.6049 17.8021 12.6313 16.2221 12.684Z" fill="#156BC1"/>
</g>
<g id="LightGray">
<path id="Vector_11" d="M35.9203 15.8178C34.7879 17.0555 33.2605 20.1367 33.0235 21.6904C32.8391 22.7438 32.8128 22.7965 32.5758 22.2698C32.4178 21.9538 32.2071 21.6904 32.0754 21.6904C31.9701 21.6904 31.8648 20.5317 31.8648 19.0833C31.8648 16.5815 31.8384 16.4762 31.1801 16.0285C30.8114 15.7915 30.3637 15.6598 30.2057 15.7125C29.7843 15.8705 26.4925 25.0086 26.7295 25.3509C27.0982 25.9829 27.9409 25.6406 28.3359 24.7189C28.5466 24.2185 28.8626 23.7972 29.047 23.7972C29.205 23.7972 29.6263 23.7182 29.9687 23.6392C30.4954 23.4812 30.548 23.5602 30.548 24.5609C30.548 25.6143 30.5744 25.6669 31.2854 25.5879C31.9174 25.5089 31.9964 25.3772 32.0754 24.4555C32.1808 23.0598 32.6548 22.5858 32.6548 23.8498C32.6548 25.5616 33.8135 26.0356 35.1303 24.8769C35.894 24.2449 36.8683 21.9538 36.8683 20.8214C36.8683 20.2683 37.0527 19.5573 37.2897 19.1886C37.6584 18.6093 37.6584 18.5303 37.1053 17.9772L36.526 17.3979L37.1317 16.8975C37.4477 16.6342 38.0007 16.4235 38.3694 16.4235C38.9224 16.4235 39.0014 16.3182 38.9224 15.6861C38.8434 15.0804 38.7117 14.9751 37.8427 14.8961C36.9737 14.8171 36.7103 14.9488 35.9203 15.8178ZM30.2847 21.032C30.2847 22.0328 30.2057 22.2171 29.758 22.2171C29.284 22.2171 29.2577 22.1908 29.7053 21.032C29.9424 20.3737 30.1794 19.847 30.2057 19.847C30.2584 19.847 30.2847 20.3737 30.2847 21.032ZM35.0249 22.1118C34.5772 23.4548 34.4192 23.0335 34.8142 21.5324C34.9986 20.8214 35.1829 20.4527 35.2356 20.716C35.2883 20.953 35.1829 21.5851 35.0249 22.1118Z" fill="#BB5D06"/>
<path id="Vector_12" d="M42.6883 16.2392C42.5566 16.5815 42.3986 17.2399 42.3459 17.7402C42.2933 18.4249 42.3723 18.6356 42.8463 18.8199C43.61 19.1096 43.8997 18.6883 44.1367 17.0029C44.2947 15.6598 44.2947 15.6335 43.61 15.6335C43.1096 15.6335 42.8463 15.8178 42.6883 16.2392Z" fill="#BB5D06"/>
<path id="Vector_13" d="M45.4534 19.6626C44.4263 20.637 43.452 22.6384 43.452 23.7708C43.452 24.9822 44.0577 25.5089 45.3481 25.4826C46.9545 25.4562 47.7182 25.0085 47.4285 24.2448C47.1915 23.6392 46.9808 23.6128 45.7167 23.9288C44.9794 24.1395 44.953 24.1132 45.111 23.2968C45.2164 22.8228 45.5324 22.0854 45.8221 21.6641C46.2961 21.0057 46.4541 20.953 46.9018 21.2427C47.3495 21.5061 47.4811 21.4797 47.8235 21.0584C48.2712 20.4263 48.2975 19.531 47.8762 19.1096C47.3231 18.5566 46.4014 18.7673 45.4534 19.6626Z" fill="#BB5D06"/>
<path id="Vector_14" d="M52.4057 19.0306C52.4057 19.1623 52.1687 19.2149 51.879 19.1359C50.5097 18.7673 48.5082 20.2157 47.7972 22.0854C47.4022 23.0598 47.4022 23.3231 47.7182 23.9815C48.1395 24.8769 49.4036 25.1139 50.4043 24.4292L51.089 24.0078V24.9822C51.089 25.8776 51.1417 25.9302 51.8 25.8512C52.4584 25.7722 52.5637 25.6406 52.7218 24.4555C52.8271 23.7181 53.1168 22.2697 53.3538 21.2164C53.7488 19.5573 53.7488 19.2413 53.4328 19.0306C52.9588 18.7409 52.4057 18.7409 52.4057 19.0306ZM51.6157 20.9267C51.6157 21.3217 49.5353 23.4021 49.3509 23.1915C49.0876 22.9544 49.4826 22.0591 50.1673 21.3217C50.8257 20.6107 51.6157 20.4 51.6157 20.9267Z" fill="#BB5D06"/>
<path id="Vector_15" d="M37.6584 20.558C37.5004 21.4007 37.1844 22.7701 36.9737 23.6128C36.4733 25.6406 36.4733 25.6406 37.3951 25.6406C38.0798 25.6406 38.2114 25.5089 38.4484 24.5872C38.7381 23.5075 40.2918 21.6904 40.9239 21.6904C41.3189 21.6904 41.6086 21.1374 41.6086 20.4527C41.6086 20.1103 41.3979 20.0576 40.4235 20.1893C39.3701 20.3473 39.2385 20.2947 39.2385 19.8733C39.2385 19.4256 38.7644 19.0569 38.1851 19.0569C38.0534 19.0569 37.8164 19.7416 37.6584 20.558Z" fill="#BB5D06"/>
<path id="Vector_16" d="M54.2754 19.61C54.1701 19.9523 53.8541 21.1637 53.5907 22.2697C53.1957 23.9288 53.1694 24.3765 53.4591 24.6925C54.0121 25.4036 54.6705 25.1665 55.8028 23.8498L56.9089 22.6121L56.7509 23.4548C56.5402 24.4818 56.9879 25.3772 57.6726 25.3772C57.9623 25.3772 58.1993 25.3509 58.1993 25.2982C58.647 23.0334 58.9103 20.4263 58.6996 20.0576C58.2783 19.2939 57.2776 19.4783 56.3822 20.5317L55.5658 21.4534L55.7238 20.4C55.8292 19.7153 55.8028 19.3203 55.6185 19.3203C55.4605 19.3203 55.1708 19.2413 54.9338 19.1623C54.6441 19.0569 54.4334 19.2149 54.2754 19.61Z" fill="#BB5D06"/>
<path id="Vector_17" d="M42.2406 20.0576C41.9772 20.242 41.0818 24.1658 41.0818 25.1665C41.0818 25.4826 41.2925 25.6406 41.7402 25.6406C42.2406 25.6406 42.4249 25.4562 42.5566 24.9032C42.6619 24.5082 42.8989 23.5338 43.0833 22.7438C43.5573 20.874 43.5573 20.2157 43.0306 20.005C42.5302 19.8206 42.5829 19.8206 42.2406 20.0576Z" fill="#BB5D06"/>
<path id="Vector_18" d="M63.4662 22.4014C63.4662 22.5331 63.2292 25.7986 62.9132 29.6961C62.4392 35.674 62.4129 36.8064 62.7025 36.9908C63.3609 37.4121 64.1246 37.1488 64.2563 36.3851C64.3353 35.911 64.8093 35.4107 65.6783 34.805C68.3645 33.0142 69.3388 30.7231 68.0748 29.3274C67.6271 28.827 67.3374 28.7744 66.1524 28.8534C64.783 28.9851 64.7566 28.9587 64.8883 28.3004C64.9673 27.9317 65.099 26.4043 65.2043 24.9032L65.3623 22.2171H64.4143C63.8876 22.2171 63.4662 22.2961 63.4662 22.4014ZM66.8897 30.7495C66.8897 30.9338 66.4157 31.6185 65.81 32.2505C65.2306 32.8826 64.8093 33.1986 64.8883 32.9352C64.9673 32.6719 65.0463 32.3032 65.0463 32.1189C65.0463 31.6975 66.2314 30.3808 66.6264 30.3808C66.7581 30.3808 66.8897 30.5388 66.8897 30.7495Z" fill="#BB5D06"/>
<path id="Vector_19" d="M25.0441 27.721C23.2797 28.353 22.4107 29.1431 22.8057 29.8014C23.2007 30.4071 23.9118 30.5125 24.4384 30.0384C25.5182 29.0641 29.284 28.432 30.2584 29.0377C31.0747 29.5644 30.4691 31.2762 28.9943 32.5929C28.3623 33.1723 28.3623 33.1459 28.7046 31.0392C28.968 29.3537 28.8363 29.0641 27.7303 29.0641C27.2826 29.0641 27.1246 29.2484 26.9929 29.9068C26.9139 30.3808 26.5979 32.2505 26.3082 34.0676C25.9922 35.8847 25.7288 38.4918 25.7025 39.8612L25.6762 42.363L26.3609 42.442C27.0456 42.521 27.0719 42.4683 27.2299 40.9409C27.7566 35.7794 27.6513 36.1217 28.5466 35.4107C32.4705 32.1979 33.5239 29.6961 31.6804 27.958C31.1274 27.4313 30.7324 27.3523 28.7573 27.2733C27.0456 27.2207 26.1239 27.326 25.0441 27.721Z" fill="#BB5D06"/>
<path id="Vector_20" d="M50.1146 27.8263C49.9566 27.9843 49.4036 29.0377 48.8769 30.1174C48.3502 31.1971 47.6655 32.3822 47.3758 32.7509L46.8491 33.4092L46.9545 31.5132C47.0861 29.5117 46.9018 29.064 45.9274 29.064C45.2164 29.064 45.032 29.8541 45.032 32.7772C45.032 34.2783 45.1374 34.9366 45.4534 35.2263C46.8491 36.6484 49.2719 34.2256 51.1943 29.4854C51.642 28.4057 51.5893 28.1687 50.8256 27.7473C50.5096 27.563 50.2726 27.5893 50.1146 27.8263Z" fill="#BB5D06"/>
<path id="Vector_21" d="M69.9708 27.958C68.5488 28.8534 68.8384 30.1438 70.7609 31.4605C71.4455 31.9345 72.0776 32.3559 72.1302 32.4085C72.2092 32.4612 71.9459 32.8036 71.5772 33.1986C70.9189 33.8306 70.8399 33.8569 70.4448 33.4356C69.3915 32.4085 68.0484 33.5936 68.6804 34.9893C69.3125 36.3587 70.8399 36.0954 73.052 34.2783C73.8947 33.5936 74.0263 33.3566 73.9473 32.5139C73.8683 31.6975 73.684 31.4605 72.4989 30.6705C70.7872 29.5907 70.7082 29.1167 72.2092 29.0114C73.0783 28.9587 73.368 28.8007 73.4206 28.432C73.4733 28.1687 73.368 27.8527 73.1573 27.721C72.5779 27.3523 70.7609 27.484 69.9708 27.958Z" fill="#BB5D06"/>
<path id="Vector_22" d="M33.3658 27.9317C33.3132 28.0633 33.0235 29.7224 32.7865 31.6448C32.3651 34.6733 32.3651 35.2 32.6811 35.4107C33.4712 35.911 33.9979 35.5424 34.4982 34.094C35.0776 32.3559 35.7359 31.4605 36.8157 30.9338C37.6057 30.5125 38.106 29.5644 37.7637 29.0114C37.6057 28.748 36.3943 28.8534 35.4989 29.1957C35.1302 29.3537 35.0249 29.2484 35.0249 28.7217C35.0249 28.0897 34.6036 27.7473 33.8398 27.7473C33.6292 27.7473 33.4185 27.8263 33.3658 27.9317Z" fill="#BB5D06"/>
<path id="Vector_23" d="M40.2918 27.9317C39.0014 28.1687 38.027 29.5908 37.4214 32.0662C37.0527 33.6199 37.237 34.726 38.0007 35.2527C38.7907 35.8057 39.5808 35.753 41.0292 35.0157C43.1096 33.9623 44.5053 32.1452 44.5053 30.5125C44.5053 29.1431 43.9523 28.353 42.7146 28.0107C41.7139 27.7473 41.4242 27.721 40.2918 27.9317ZM42.6093 30.1701C42.7146 30.6441 40.0811 33.5409 39.5544 33.5409C39.3701 33.5409 39.2384 33.3039 39.2384 33.0142C39.2384 32.3822 39.7915 31.1708 40.0811 31.1708C40.1865 31.1708 40.2918 31.0128 40.2918 30.8021C40.2918 30.2754 41.3715 29.5644 42.0036 29.6434C42.2932 29.6961 42.5566 29.9331 42.6093 30.1701Z" fill="#BB5D06"/>
<path id="Vector_24" d="M58.3309 28.0634C58.1993 28.4057 57.8306 30.5915 57.3829 33.4883C57.2512 34.41 57.1986 35.279 57.3039 35.4107C57.3829 35.5424 57.7779 35.6477 58.1729 35.6477C58.8313 35.6477 58.963 35.516 59.2263 34.5153C59.6213 32.9352 60.385 31.8029 61.6228 31.0392C62.3601 30.5651 62.6761 30.1965 62.6761 29.7488C62.6761 28.9061 62.0968 28.7217 60.8064 29.1694C59.7793 29.5381 59.7267 29.5118 59.8583 29.0377C59.9374 28.7217 59.7793 28.3794 59.437 28.1424C58.7523 27.6683 58.489 27.642 58.3309 28.0634Z" fill="#BB5D06"/>
<path id="Vector_25" d="M53.6961 28.6164C52.432 29.3801 51.4313 30.5915 50.9573 31.9608C50.4043 33.5409 50.4569 34.0149 51.326 34.884C52.353 35.8847 53.9594 35.9374 55.8292 34.9893C57.2512 34.2783 57.4356 33.8833 56.6719 33.1986C56.2242 32.7772 56.1188 32.8036 55.1708 33.2776C54.0648 33.8306 52.669 33.9886 52.669 33.5409C52.669 33.3829 53.1694 33.2776 53.7487 33.2776C54.6968 33.2776 55.0128 33.1196 55.9872 32.1189C57.3566 30.7495 57.5409 29.5381 56.5402 28.59C55.7502 27.8527 54.8811 27.8527 53.6961 28.6164ZM54.6968 30.8021C53.6171 31.7238 53.1694 31.5658 54.1964 30.6178C54.6968 30.1701 55.1708 29.9068 55.2498 29.9858C55.3551 30.0911 55.0918 30.4598 54.6968 30.8021Z" fill="#BB5D06"/>
</g>
</g>
<defs>
<clipPath id="clip0_694_3889">
<rect width="74" height="42.1352" fill="white" transform="translate(0 0.359436)"/>
</clipPath>
</defs>
</svg>
