<svg width="22" height="24" viewBox="0 0 22 24" fill="none" xmlns="http://www.w3.org/2000/svg">
<path d="M10.5556 21.1111C16.3852 21.1111 21.1111 16.3852 21.1111 10.5556C21.1111 4.72588 16.3852 0 10.5556 0C4.72588 0 0 4.72588 0 10.5556C0 16.3852 4.72588 21.1111 10.5556 21.1111Z" fill="#BB5D06"/>
<path d="M17.4167 10.5561C17.4167 6.49221 13.9333 3.27276 9.7639 3.74776C6.59724 4.11721 4.0639 6.65054 3.74724 9.81721C3.48335 12.245 4.48612 14.4089 6.17501 15.7811C6.9139 16.4144 7.3889 17.3117 7.3889 18.3144V18.4728H13.7222V18.42C13.7222 17.47 14.1445 16.52 14.8833 15.8866C16.4139 14.62 17.4167 12.72 17.4167 10.5561Z" fill="#FBC02D"/>
<path d="M14.0389 9.60543L12.4555 8.54987C12.2972 8.44431 12.0333 8.44431 11.875 8.54987L10.5555 9.39431L9.28888 8.54987C9.13055 8.44431 8.86666 8.44431 8.70832 8.54987L7.12499 9.60543C7.01943 9.71098 6.91388 9.81654 6.91388 9.97487C6.91388 10.1332 6.91388 10.2915 7.01943 10.3971L9.02499 12.8776V18.4721H10.0805V12.6665C10.0805 12.561 10.0278 12.4554 9.97499 12.3499L8.23332 10.186L9.02499 9.6582L10.2917 10.5026C10.45 10.6082 10.7139 10.6082 10.8722 10.5026L12.1389 9.6582L12.9305 10.186L11.1889 12.3499C11.1361 12.4554 11.0833 12.561 11.0833 12.6665V18.4721H12.1389V12.8776L14.1444 10.3971C14.25 10.2915 14.3028 10.1332 14.25 9.97487C14.1972 9.81654 14.1444 9.6582 14.0389 9.60543Z" fill="#BB5D06"/>
<path d="M10.5556 23.7497C11.43 23.7497 12.1389 23.0408 12.1389 22.1663C12.1389 21.2919 11.43 20.583 10.5556 20.583C9.68111 20.583 8.97223 21.2919 8.97223 22.1663C8.97223 23.0408 9.68111 23.7497 10.5556 23.7497Z" fill="#5C6BC0"/>
<path d="M11.6111 22.6943H9.49997C8.33885 22.6943 7.38885 21.7443 7.38885 20.5832V17.9443H13.7222V20.5832C13.7222 21.7443 12.7722 22.6943 11.6111 22.6943Z" fill="#9FA8DA"/>
<path d="M13.7222 20.5838L7.59997 21.4282C7.7583 21.7977 8.07497 22.1671 8.44441 22.3782L13.4055 21.6921C13.6166 21.3754 13.7222 21.006 13.7222 20.5838ZM7.38885 19.3699V20.4254L13.7222 19.5282V18.4727L7.38885 19.3699Z" fill="#5C6BC0"/>
</svg>
