<svg width="40" height="40" viewBox="0 0 17 15" fill="none" xmlns="http://www.w3.org/2000/svg">
<path d="M1.39776 6.29091H3.49488V14.6794H1.39776C1.01169 14.6794 0.698715 14.3665 0.698715 13.9804V6.98995C0.698715 6.60388 1.01169 6.29091 1.39776 6.29091ZM5.09771 5.38712L9.57193 0.912924C9.6949 0.789927 9.88965 0.776093 10.0288 0.880453L10.6248 1.32745C10.9636 1.58156 11.1163 2.01456 11.0118 2.42499L10.2055 5.59186H14.6796C15.4517 5.59186 16.0776 6.21781 16.0776 6.98995V8.46096C16.0776 8.64362 16.0418 8.82446 15.9724 8.99328L13.8092 14.2465C13.7014 14.5084 13.4461 14.6794 13.1628 14.6794H5.59201C5.20594 14.6794 4.89297 14.3665 4.89297 13.9804V5.88142C4.89297 5.69602 4.96662 5.51822 5.09771 5.38712Z" fill="#BB5D06"/>
</svg>
