<svg width="40" height="40" viewBox="0 0 17 15" fill="none" xmlns="http://www.w3.org/2000/svg">
<path d="M1.39777 5.90223H3.4949V14.2908H1.39777C1.01171 14.2908 0.69873 13.9778 0.69873 13.5917V6.60128C0.69873 6.21521 1.01171 5.90223 1.39777 5.90223ZM5.09772 4.99845L9.57195 0.524252C9.69491 0.401255 9.88966 0.387421 10.0288 0.491781L10.6248 0.938777C10.9636 1.19289 11.1163 1.62589 11.0118 2.03631L10.2056 5.20319H14.6796C15.4517 5.20319 16.0777 5.82913 16.0777 6.60128V8.07229C16.0777 8.25495 16.0419 8.43579 15.9724 8.60461L13.8093 13.8578C13.7014 14.1198 13.4461 14.2908 13.1629 14.2908H5.59202C5.20596 14.2908 4.89298 13.9778 4.89298 13.5917V5.49275C4.89298 5.30735 4.96663 5.12955 5.09772 4.99845Z" fill="#A4A4A4"/>
</svg>
