<svg width="74" height="43" viewBox="0 0 74 43" fill="none" xmlns="http://www.w3.org/2000/svg">
<g clipPath="url(#clip0_3717_4825)">
<path d="M3.29183 17.2485C2.89681 18.6179 3.02849 24.7275 3.50251 26.6236C3.73952 27.5716 4.81923 30.2314 5.92528 32.4962C7.7687 36.341 8.69041 38.8691 8.69041 40.1068C8.69041 40.4492 8.82208 40.5545 9.11176 40.4492C9.34877 40.3702 10.2178 40.2912 11.0869 40.2912H12.6406V29.4414C12.6406 23.4897 12.5879 18.6705 12.5352 18.7232C12.2982 18.9339 11.6135 25.1488 11.1922 30.5474C10.9552 33.5232 10.7445 36.0513 10.7182 36.1567C10.5602 36.7097 9.40144 35.2349 8.34806 33.1809C7.084 30.7581 6.18863 28.2826 5.10891 24.4641C4.1082 20.8036 3.97653 20.1716 3.73952 18.2492C3.52884 16.6428 3.50251 16.5374 3.29183 17.2485Z" fill="#6B1515"/>
<path d="M20.62 2.00181C20.5409 2.23882 20.6726 3.05519 20.9096 3.81889C21.5943 6.05732 23.7011 7.42672 23.9118 5.82031C24.0698 4.79327 23.7538 4.10857 22.6214 2.81818C21.5153 1.52779 20.9096 1.29078 20.62 2.00181Z" fill="#C14015"/>
<path d="M20.8306 18.8303C20.6463 19.2517 20.1986 20.9898 19.8562 22.6488C19.1452 26.0723 18.7765 27.4154 18.2762 28.6268C18.0655 29.0745 17.9075 29.5222 17.9075 29.6275C17.9075 29.9698 15.6691 34.631 15.4847 34.7101C15.353 34.7627 15.274 34.9471 15.274 35.1314C15.274 35.3157 15.037 35.6844 14.7473 35.9478C14.247 36.3955 14.2207 36.3955 13.9836 35.7634C13.852 35.4211 13.6676 31.7079 13.5623 27.5471C13.457 23.3862 13.2726 19.594 13.1673 19.1463C13.0356 18.6723 12.9566 23.2545 12.9303 29.2851L12.9039 40.293H14.326H15.7217L16.0377 38.6866C16.2221 37.7912 16.4854 36.7378 16.6434 36.3691C16.8014 36.0004 16.9594 35.6318 16.9858 35.5528C17.0121 35.4738 17.7758 33.8673 18.7239 31.9976C19.6456 30.1015 20.4093 28.5214 20.4093 28.4424C20.4356 28.3634 20.6463 27.6524 20.8833 26.8624C21.4626 25.0453 21.6997 21.3848 21.3836 19.4887L21.1466 18.0403L20.8306 18.8303Z" fill="#C14015"/>
<path d="M5.42491 15.6944C5.13523 21.1193 5.53024 23.1471 7.95302 29.362C8.76939 31.3898 9.53309 33.3912 9.66476 33.8389L9.95444 34.6289L10.0861 33.9705C10.2968 33.1015 10.7445 26.7285 10.9288 21.7777C11.0342 19.6182 11.2712 16.6424 11.4555 15.194C11.6399 13.7193 11.7715 12.4816 11.7452 12.4552C11.7189 12.4289 10.3231 12.3236 8.63772 12.2182L5.58291 12.0339L5.42491 15.6944Z" fill="#6B9615"/>
<path d="M13.2989 0.47462C16.9331 3.50309 17.0911 3.68743 16.6961 4.4248C16.5117 4.79348 16.3801 5.13583 16.4064 5.16217C16.6434 5.34651 20.7516 5.50451 20.9886 5.32017C21.2519 5.16217 21.2519 4.89882 21.0149 4.16145C20.7779 3.39775 20.5672 3.16074 19.9089 3.0554C19.4612 2.95007 18.0918 2.23903 16.8804 1.449C15.2213 0.342948 14.4313 0.000598907 13.7203 0.000598907C12.7986 0.0269337 12.7722 0.0269337 13.2989 0.47462Z" fill="#C16B40"/>
<path d="M5.66191 4.21439C4.50319 4.47774 3.23913 4.71475 2.84412 4.71475C2.18575 4.74108 2.10675 4.84642 2.10675 5.66279C2.10675 6.63717 2.42276 6.79517 3.52881 6.34749C3.81849 6.24215 4.68753 6.24215 5.47757 6.37382C6.39928 6.53183 7.03131 6.50549 7.18931 6.34749C7.37365 6.16315 7.32098 6.00514 7.00497 5.8998C6.63629 5.74179 6.68896 5.66279 7.34732 5.24144C7.76867 4.97809 8.26903 4.5304 8.42703 4.24073C8.76938 3.55603 8.58504 3.55603 5.66191 4.21439Z" fill="#C16B40"/>
<path d="M5.21423 8.34609C4.34519 8.47776 3.68683 9.32046 3.68683 10.2948C3.68683 11.2429 4.23985 11.6379 5.76726 11.7959C7.00498 11.9012 7.03131 11.9012 7.21565 11.0585C7.50533 9.55747 7.4 8.50409 6.95231 8.31975C6.53096 8.16174 6.45195 8.16174 5.21423 8.34609Z" fill="#EC6B40"/>
<path d="M13.9046 8.37352L11.8505 8.45252V10.1643V11.9023L15.6164 11.7443C19.6982 11.56 20.5936 11.244 20.7516 9.95359C20.9359 8.47886 19.5402 8.16284 13.9046 8.37352Z" fill="#EC6B40"/>
<path d="M0.421397 3.73935C-0.157962 4.55572 -0.157962 7.71587 0.421397 8.16355C0.763746 8.45323 0.921753 8.4269 1.36944 7.95288C1.81713 7.50519 1.9488 7.00484 2.0278 5.29309L2.15948 3.16H1.47478C1.10609 3.16 0.658408 3.39701 0.421397 3.73935Z" fill="#156BC1"/>
<path d="M16.2221 12.3238L13.378 12.4028L13.536 13.2455C13.8256 14.8783 14.1943 19.6712 14.484 25.0171C14.8527 32.6541 15.0107 34.2605 15.3267 34.0761C15.7217 33.8391 16.4854 31.8904 18.0655 27.2555C19.1979 23.911 19.5666 22.4626 19.7772 20.2769C20.0669 17.3011 19.8036 12.2975 19.3559 12.2712C19.2242 12.2448 17.8022 12.2712 16.2221 12.3238Z" fill="#156BC1"/>
<path d="M35.9203 15.4608C34.7879 16.6985 33.2605 19.7797 33.0235 21.3334C32.8391 22.3868 32.8128 22.4395 32.5758 21.9128C32.4178 21.5968 32.2071 21.3334 32.0754 21.3334C31.9701 21.3334 31.8648 20.1747 31.8648 18.7263C31.8648 16.2245 31.8384 16.1192 31.1801 15.6715C30.8114 15.4345 30.3637 15.3028 30.2057 15.3555C29.7843 15.5135 26.4925 24.6516 26.7295 24.9939C27.0982 25.6259 27.9409 25.2836 28.3359 24.3619C28.5466 23.8615 28.8626 23.4402 29.047 23.4402C29.205 23.4402 29.6263 23.3612 29.9687 23.2822C30.4954 23.1242 30.548 23.2032 30.548 24.2039C30.548 25.2573 30.5744 25.3099 31.2854 25.2309C31.9174 25.1519 31.9964 25.0203 32.0754 24.0985C32.1808 22.7028 32.6548 22.2288 32.6548 23.4929C32.6548 25.2046 33.8135 25.6786 35.1303 24.5199C35.894 23.8879 36.8683 21.5968 36.8683 20.4644C36.8683 19.9114 37.0527 19.2003 37.2897 18.8316C37.6584 18.2523 37.6584 18.1733 37.1053 17.6203L36.526 17.0409L37.1317 16.5405C37.4477 16.2772 38.0007 16.0665 38.3694 16.0665C38.9224 16.0665 39.0014 15.9612 38.9224 15.3292C38.8434 14.7235 38.7117 14.6181 37.8427 14.5391C36.9737 14.4601 36.7103 14.5918 35.9203 15.4608ZM30.2847 20.6751C30.2847 21.6758 30.2057 21.8601 29.758 21.8601C29.284 21.8601 29.2577 21.8338 29.7053 20.6751C29.9424 20.0167 30.1794 19.49 30.2057 19.49C30.2584 19.49 30.2847 20.0167 30.2847 20.6751ZM35.0249 21.7548C34.5772 23.0978 34.4192 22.6765 34.8142 21.1754C34.9986 20.4644 35.1829 20.0957 35.2356 20.359C35.2883 20.5961 35.1829 21.2281 35.0249 21.7548Z" fill="#BB5D06"/>
<path d="M42.6883 15.8818C42.5566 16.2241 42.3986 16.8825 42.3459 17.3828C42.2932 18.0675 42.3722 18.2782 42.8463 18.4626C43.61 18.7522 43.8996 18.3309 44.1367 16.6455C44.2947 15.3024 44.2947 15.2761 43.61 15.2761C43.1096 15.2761 42.8463 15.4604 42.6883 15.8818Z" fill="#BB5D06"/>
<path d="M45.4534 19.3041C44.4263 20.2785 43.452 22.2799 43.452 23.4123C43.452 24.6237 44.0577 25.1504 45.3481 25.1241C46.9545 25.0977 47.7182 24.65 47.4285 23.8863C47.1915 23.2806 46.9808 23.2543 45.7167 23.5703C44.9794 23.781 44.953 23.7547 45.111 22.9383C45.2164 22.4643 45.5324 21.7269 45.8221 21.3056C46.2961 20.6472 46.4541 20.5945 46.9018 20.8842C47.3495 21.1475 47.4811 21.1212 47.8235 20.6999C48.2712 20.0678 48.2975 19.1725 47.8762 18.7511C47.3231 18.1981 46.4014 18.4088 45.4534 19.3041Z" fill="#BB5D06"/>
<path d="M52.4057 18.673C52.4057 18.8046 52.1687 18.8573 51.879 18.7783C50.5096 18.4096 48.5082 19.858 47.7972 21.7278C47.4021 22.7021 47.4021 22.9655 47.7182 23.6239C48.1395 24.5192 49.4036 24.7562 50.4043 24.0715L51.089 23.6502V24.6246C51.089 25.5199 51.1417 25.5726 51.8 25.4936C52.4584 25.4146 52.5637 25.2829 52.7217 24.0979C52.8271 23.3605 53.1167 21.9121 53.3538 20.8587C53.7488 19.1997 53.7488 18.8836 53.4328 18.673C52.9587 18.3833 52.4057 18.3833 52.4057 18.673ZM51.6157 20.5691C51.6157 20.9641 49.5352 23.0445 49.3509 22.8338C49.0876 22.5968 49.4826 21.7014 50.1673 20.9641C50.8256 20.253 51.6157 20.0424 51.6157 20.5691Z" fill="#BB5D06"/>
<path d="M37.6584 20.1987C37.5004 21.0414 37.1843 22.4108 36.9737 23.2535C36.4733 25.2812 36.4733 25.2812 37.395 25.2812C38.0797 25.2812 38.2114 25.1496 38.4484 24.2279C38.7381 23.1482 40.2918 21.3311 40.9238 21.3311C41.3189 21.3311 41.6085 20.778 41.6085 20.0933C41.6085 19.751 41.3979 19.6983 40.4235 19.83C39.3701 19.988 39.2384 19.9353 39.2384 19.514C39.2384 19.0663 38.7644 18.6976 38.1851 18.6976C38.0534 18.6976 37.8164 19.3823 37.6584 20.1987Z" fill="#BB5D06"/>
<path d="M54.2755 19.2523C54.1701 19.5946 53.8541 20.806 53.5908 21.9121C53.1957 23.5711 53.1694 24.0188 53.4591 24.3348C54.0121 25.0459 54.6705 24.8089 55.8029 23.4921L56.9089 22.2544L56.7509 23.0971C56.5402 24.1242 56.9879 25.0195 57.6726 25.0195C57.9623 25.0195 58.1993 24.9932 58.1993 24.9405C58.647 22.6758 58.9103 20.0686 58.6997 19.7C58.2783 18.9363 57.2776 19.1206 56.3822 20.174L55.5659 21.0957L55.7239 20.0423C55.8292 19.3576 55.8029 18.9626 55.6185 18.9626C55.4605 18.9626 55.1708 18.8836 54.9338 18.8046C54.6441 18.6992 54.4335 18.8573 54.2755 19.2523Z" fill="#BB5D06"/>
<path d="M42.2406 19.6983C41.9772 19.8827 41.0818 23.8065 41.0818 24.8072C41.0818 25.1232 41.2925 25.2812 41.7402 25.2812C42.2406 25.2812 42.4249 25.0969 42.5566 24.5439C42.6619 24.1489 42.8989 23.1745 43.0833 22.3845C43.5573 20.5147 43.5573 19.8563 43.0306 19.6457C42.5302 19.4613 42.5829 19.4613 42.2406 19.6983Z" fill="#BB5D06"/>
<path d="M63.4662 22.0425C63.4662 22.1742 63.2292 25.4397 62.9132 29.3372C62.4392 35.3151 62.4128 36.4475 62.7025 36.6318C63.3609 37.0532 64.1246 36.7898 64.2562 36.0261C64.3352 35.5521 64.8093 35.0518 65.6783 34.4461C68.3644 32.6553 69.3388 30.3642 68.0747 28.9685C67.6271 28.4681 67.3374 28.4155 66.1523 28.4945C64.7829 28.6261 64.7566 28.5998 64.8883 27.9414C64.9673 27.5728 65.0989 26.0453 65.2043 24.5443L65.3623 21.8582H64.4142C63.8876 21.8582 63.4662 21.9372 63.4662 22.0425ZM66.8897 30.3905C66.8897 30.5749 66.4157 31.2596 65.81 31.8916C65.2306 32.5236 64.8093 32.8397 64.8883 32.5763C64.9673 32.313 65.0463 31.9443 65.0463 31.7599C65.0463 31.3386 66.2313 30.0219 66.6263 30.0219C66.758 30.0219 66.8897 30.1799 66.8897 30.3905Z" fill="#BB5D06"/>
<path d="M25.0441 27.3622C23.2797 27.9942 22.4107 28.7842 22.8057 29.4426C23.2007 30.0483 23.9118 30.1536 24.4384 29.6796C25.5182 28.7052 29.284 28.0732 30.2584 28.6789C31.0747 29.2056 30.4691 30.9173 28.9943 32.234C28.3623 32.8134 28.3623 32.7871 28.7046 30.6803C28.968 28.9949 28.8363 28.7052 27.7303 28.7052C27.2826 28.7052 27.1246 28.8896 26.9929 29.5479C26.9139 30.0219 26.5979 31.8917 26.3082 33.7088C25.9922 35.5259 25.7288 38.133 25.7025 39.5024L25.6762 42.0041L26.3609 42.0831C27.0456 42.1622 27.0719 42.1095 27.2299 40.5821C27.7566 35.4205 27.6513 35.7629 28.5466 35.0518C32.4705 31.839 33.5239 29.3372 31.6804 27.5992C31.1274 27.0725 30.7324 26.9935 28.7573 26.9145C27.0456 26.8618 26.1239 26.9671 25.0441 27.3622Z" fill="#BB5D06"/>
<path d="M50.1146 27.4687C49.9566 27.6267 49.4036 28.6801 48.8769 29.7598C48.3502 30.8395 47.6655 32.0246 47.3758 32.3933L46.8491 33.0516L46.9545 31.1556C47.0861 29.1541 46.9018 28.7064 45.9274 28.7064C45.2164 28.7064 45.032 29.4965 45.032 32.4196C45.032 33.9207 45.1374 34.579 45.4534 34.8687C46.8491 36.2908 49.2719 33.868 51.1943 29.1278C51.642 28.0481 51.5893 27.8111 50.8256 27.3897C50.5096 27.2054 50.2726 27.2317 50.1146 27.4687Z" fill="#BB5D06"/>
<path d="M69.9708 27.5975C68.5488 28.4928 68.8385 29.7832 70.7609 31.1C71.4456 31.574 72.0776 31.9953 72.1303 32.048C72.2093 32.1007 71.9459 32.443 71.5773 32.838C70.9189 33.4701 70.8399 33.4964 70.4449 33.075C69.3915 32.048 68.0484 33.2331 68.6805 34.6288C69.3125 35.9982 70.8399 35.7348 73.052 33.9178C73.8947 33.2331 74.0264 32.996 73.9474 32.1533C73.8684 31.337 73.684 31.1 72.499 30.3099C70.7872 29.2302 70.7082 28.7562 72.2093 28.6508C73.0783 28.5982 73.368 28.4402 73.4207 28.0715C73.4733 27.8081 73.368 27.4921 73.1573 27.3605C72.578 26.9918 70.7609 27.1234 69.9708 27.5975Z" fill="#BB5D06"/>
<path d="M33.3659 27.5714C33.3132 27.7031 33.0235 29.3622 32.7865 31.2846C32.3651 34.3131 32.3651 34.8398 32.6812 35.0504C33.4712 35.5508 33.9979 35.1821 34.4982 33.7337C35.0776 31.9956 35.736 31.1003 36.8157 30.5736C37.6057 30.1522 38.1061 29.2042 37.7637 28.6511C37.6057 28.3878 36.3943 28.4931 35.499 28.8355C35.1303 28.9935 35.0249 28.8882 35.0249 28.3615C35.0249 27.7294 34.6036 27.3871 33.8399 27.3871C33.6292 27.3871 33.4185 27.4661 33.3659 27.5714Z" fill="#BB5D06"/>
<path d="M40.2918 27.5731C39.0015 27.8101 38.0271 29.2322 37.4214 31.7076C37.0527 33.2614 37.237 34.3674 38.0007 34.8941C38.7908 35.4471 39.5808 35.3945 41.0292 34.6571C43.1096 33.6037 44.5054 31.7866 44.5054 30.1539C44.5054 28.7845 43.9523 27.9945 42.7146 27.6521C41.7139 27.3888 41.4242 27.3625 40.2918 27.5731ZM42.6093 29.8116C42.7146 30.2856 40.0812 33.1824 39.5545 33.1824C39.3701 33.1824 39.2385 32.9454 39.2385 32.6557C39.2385 32.0237 39.7915 30.8123 40.0812 30.8123C40.1865 30.8123 40.2918 30.6543 40.2918 30.4436C40.2918 29.9169 41.3716 29.2059 42.0036 29.2849C42.2933 29.3375 42.5566 29.5746 42.6093 29.8116Z" fill="#BB5D06"/>
<path d="M58.331 27.7047C58.1993 28.0471 57.8306 30.2328 57.3829 33.1296C57.2513 34.0513 57.1986 34.9204 57.3039 35.0521C57.3829 35.1837 57.778 35.2891 58.173 35.2891C58.8313 35.2891 58.963 35.1574 59.2264 34.1567C59.6214 32.5766 60.3851 31.4442 61.6228 30.6805C62.3602 30.2065 62.6762 29.8378 62.6762 29.3901C62.6762 28.5474 62.0968 28.3631 60.8064 28.8108C59.7794 29.1795 59.7267 29.1531 59.8584 28.6791C59.9374 28.3631 59.7794 28.0207 59.437 27.7837C58.7523 27.3097 58.489 27.2834 58.331 27.7047Z" fill="#BB5D06"/>
<path d="M53.6961 28.2563C52.432 29.02 51.4313 30.2314 50.9573 31.6008C50.4043 33.1809 50.457 33.6549 51.326 34.5239C52.353 35.5247 53.9594 35.5773 55.8292 34.6293C57.2513 33.9182 57.4356 33.5232 56.6719 32.8385C56.2242 32.4172 56.1189 32.4435 55.1708 32.9175C54.0648 33.4706 52.6691 33.6286 52.6691 33.1809C52.6691 33.0229 53.1694 32.9175 53.7488 32.9175C54.6968 32.9175 55.0128 32.7595 55.9872 31.7588C57.3566 30.3894 57.5409 29.178 56.5402 28.23C55.7502 27.4926 54.8812 27.4926 53.6961 28.2563ZM54.6968 30.4421C53.6171 31.3638 53.1694 31.2058 54.1965 30.2577C54.6968 29.8101 55.1708 29.5467 55.2498 29.6257C55.3552 29.7311 55.0918 30.0997 54.6968 30.4421Z" fill="#BB5D06"/>
</g>
<defs>
<clipPath id="clip0_3717_4825">
<rect width="74" height="42.1352" fill="white"/>
</clipPath>
</defs>
</svg>
