<svg width="25" height="24" viewBox="0 0 25 24" fill="none" xmlns="http://www.w3.org/2000/svg">
<path d="M12.5659 12.708L15.8119 15.954C15.9053 16.0473 16.0199 16.0973 16.1559 16.104C16.2919 16.1107 16.4133 16.0607 16.5199 15.954C16.6266 15.8473 16.6799 15.7293 16.6799 15.6C16.6799 15.4707 16.6266 15.3527 16.5199 15.246L13.2739 12L16.5199 8.754C16.6133 8.66067 16.6633 8.546 16.6699 8.41C16.6766 8.274 16.6266 8.15267 16.5199 8.046C16.4133 7.93933 16.2953 7.886 16.1659 7.886C16.0366 7.886 15.9186 7.93933 15.8119 8.046L12.5659 11.292L9.31992 8.046C9.22658 7.95267 9.11192 7.90267 8.97592 7.896C8.83992 7.88933 8.71858 7.93933 8.61192 8.046C8.50525 8.15267 8.45192 8.27067 8.45192 8.4C8.45192 8.52933 8.50525 8.64733 8.61192 8.754L11.8579 12L8.61192 15.246C8.51858 15.3393 8.46858 15.454 8.46192 15.59C8.45525 15.726 8.50525 15.8473 8.61192 15.954C8.71858 16.0607 8.83658 16.114 8.96592 16.114C9.09525 16.114 9.21325 16.0607 9.31992 15.954L12.5659 12.708ZM12.5689 21C11.3249 21 10.1549 20.764 9.05892 20.292C7.96358 19.8193 7.01058 19.178 6.19992 18.368C5.38925 17.5587 4.74758 16.6067 4.27492 15.512C3.80225 14.4173 3.56592 13.2477 3.56592 12.003C3.56592 10.759 3.80192 9.589 4.27392 8.493C4.74658 7.39767 5.38792 6.44467 6.19792 5.634C7.00725 4.82333 7.95925 4.18167 9.05392 3.709C10.1486 3.23633 11.3183 3 12.5629 3C13.8069 3 14.9769 3.236 16.0729 3.708C17.1683 4.18067 18.1213 4.822 18.9319 5.632C19.7426 6.44133 20.3843 7.39333 20.8569 8.488C21.3296 9.58267 21.5659 10.7523 21.5659 11.997C21.5659 13.241 21.3299 14.411 20.8579 15.507C20.3853 16.6023 19.7439 17.5553 18.9339 18.366C18.1246 19.1767 17.1726 19.8183 16.0779 20.291C14.9833 20.7637 13.8136 21 12.5689 21ZM12.5659 20C14.7993 20 16.6909 19.225 18.2409 17.675C19.7909 16.125 20.5659 14.2333 20.5659 12C20.5659 9.76667 19.7909 7.875 18.2409 6.325C16.6909 4.775 14.7993 4 12.5659 4C10.3326 4 8.44092 4.775 6.89092 6.325C5.34092 7.875 4.56592 9.76667 4.56592 12C4.56592 14.2333 5.34092 16.125 6.89092 17.675C8.44092 19.225 10.3326 20 12.5659 20Z" fill="#FF0000"/>
</svg>
