<svg width="25" height="25" viewBox="0 0 25 25" fill="none" xmlns="http://www.w3.org/2000/svg">
<path d="M11.6578 2.45913C12.2772 2.5017 12.8631 2.75646 13.3166 3.1805C13.7702 3.60454 14.0637 4.17195 14.1478 4.78713L14.1562 4.85313H17.1706L17.3446 4.86153C17.79 4.90478 18.2033 5.11238 18.5039 5.44384C18.8045 5.7753 18.9709 6.20685 18.9706 6.65433L18.973 9.37113L19.0414 9.37832C19.688 9.46738 20.2804 9.78764 20.7091 10.2798C21.1377 10.772 21.3736 11.4028 21.373 12.0555L21.367 12.2403C21.3244 12.8598 21.0696 13.4456 20.6456 13.8991C20.2216 14.3527 19.6542 14.6462 19.039 14.7303L18.9718 14.7363V17.4555L18.9622 17.6283C18.9189 18.0735 18.7115 18.4866 18.3803 18.7872C18.0491 19.0878 17.6179 19.2543 17.1706 19.2543H14.7538L14.7466 19.3203C14.6578 19.9669 14.3379 20.5595 13.8459 20.9884C13.3539 21.4172 12.7232 21.6534 12.0706 21.6531L11.8858 21.6471C11.2663 21.6046 10.6805 21.3498 10.227 20.9257C9.77341 20.5017 9.47987 19.9343 9.39578 19.3191L9.38978 19.2543H6.37058C5.89319 19.2543 5.43536 19.0647 5.09779 18.7271C4.76023 18.3896 4.57058 17.9317 4.57058 17.4543L4.57298 13.5531L6.67418 13.5543L6.82178 13.5483C7.19287 13.5124 7.53717 13.3392 7.78714 13.0626C8.0371 12.786 8.17472 12.4259 8.17298 12.0531L8.16698 11.9055C8.13138 11.5344 7.95843 11.19 7.68205 10.9398C7.40566 10.6896 7.04578 10.5517 6.67298 10.5531L4.57298 10.5519L4.57058 6.65553L4.57898 6.48153C4.62194 6.03613 4.82925 5.62271 5.16048 5.32187C5.49172 5.02103 5.92313 4.85435 6.37058 4.85433H8.79098L8.79698 4.78713C8.88548 4.14031 9.20534 3.54746 9.69733 3.11834C10.1893 2.68923 10.8201 2.4529 11.473 2.45313L11.6578 2.45913ZM11.473 3.65313C10.645 3.65313 9.97298 4.32513 9.97298 5.15313V6.05313L6.37058 6.05553L6.26258 6.06513C6.12445 6.0904 5.99955 6.16333 5.90965 6.27121C5.81975 6.3791 5.77054 6.51509 5.77058 6.65553L5.77298 9.35073L6.67418 9.35193C7.35216 9.35176 8.00538 9.60667 8.50405 10.066C9.00272 10.5253 9.31034 11.1554 9.36578 11.8311L9.37298 12.0291C9.37298 13.4619 8.29058 14.6307 6.89378 14.7447L6.69698 14.7531L5.77178 14.7507V17.4555C5.77178 17.6147 5.835 17.7673 5.94752 17.8798C6.06004 17.9923 6.21265 18.0555 6.37178 18.0555L10.573 18.0531L10.5694 18.9531C10.5695 19.351 10.7277 19.7324 11.0091 20.0136C11.2906 20.2948 11.6722 20.4527 12.07 20.4525C12.4678 20.4524 12.8493 20.2942 13.1305 20.0128C13.4117 19.7313 13.5695 19.3498 13.5694 18.9519L13.5742 18.0531L17.1706 18.0555C17.3297 18.0555 17.4823 17.9923 17.5948 17.8798C17.7074 17.7673 17.7706 17.6147 17.7706 17.4555L17.773 13.5531L18.6754 13.5555C18.8724 13.5554 19.0674 13.5166 19.2494 13.4411C19.4313 13.3657 19.5966 13.2551 19.7359 13.1158C19.8751 12.9764 19.9855 12.811 20.0608 12.629C20.1361 12.447 20.1749 12.2519 20.1748 12.0549C20.1747 11.8579 20.1358 11.6629 20.0604 11.4809C19.9849 11.299 19.8744 11.1337 19.735 10.9944C19.4536 10.7132 19.072 10.5554 18.6742 10.5555L17.773 10.5531L17.7706 6.65553C17.7706 6.4964 17.7074 6.34378 17.5948 6.23126C17.4823 6.11874 17.3297 6.05553 17.1706 6.05553L12.973 6.05313V5.15313C12.973 4.32513 12.301 3.65313 11.473 3.65313Z" fill="#BB5D06"/>
</svg>
