<svg width="20" height="20" viewBox="0 0 25 24" fill="none" xmlns="http://www.w3.org/2000/svg">
<path d="M11.8903 18.0805C15.2166 18.0805 17.913 15.384 17.913 12.0578C17.913 8.7316 15.2166 6.03516 11.8903 6.03516C8.56412 6.03516 5.86768 8.7316 5.86768 12.0578C5.86768 15.384 8.56412 18.0805 11.8903 18.0805Z" fill="white"/>
<path d="M18.3988 4.09766L11.8941 13.4977L8.37012 10.087V11.764L12.0218 15.345L18.3988 6.09432V4.09766Z" fill="white"/>
<path d="M17.4274 9.66367C17.7399 10.4029 17.9004 11.1974 17.8994 12C17.8994 15.3137 15.2131 18 11.8994 18C8.58575 18 5.89941 15.3137 5.89941 12C5.89941 8.68633 8.58575 6 11.8994 6C12.9884 6 14.0094 6.29 14.8897 6.79733" stroke="#6B9615" stroke-width="2" stroke-linecap="round" stroke-linejoin="round"/>
<path d="M18.2574 4.25781L11.8994 13.4451L8.45508 10.1118V11.7508L12.0244 15.2508L18.2574 6.20915V4.25781Z" stroke="#6B9615" stroke-width="2" stroke-linecap="round" stroke-linejoin="round"/>
</svg>
