<svg width="60" height="60" viewBox="0 0 60 60" fill="none" xmlns="http://www.w3.org/2000/svg">
<circle cx="30" cy="30" r="30" fill="#BB5D06"/>
<path d="M33.3335 34.9987C33.8057 34.9987 34.2157 34.8248 34.5635 34.477C34.9113 34.1293 35.0846 33.7198 35.0835 33.2487C35.0835 32.7765 34.9096 32.367 34.5618 32.0204C34.2141 31.6737 33.8046 31.4998 33.3335 31.4987C32.8613 31.4987 32.4513 31.6726 32.1035 32.0204C31.7557 32.3681 31.5824 32.7776 31.5835 33.2487C31.5835 33.7209 31.7574 34.1309 32.1052 34.4787C32.4529 34.8265 32.8624 34.9998 33.3335 34.9987ZM32.0835 29.6654H34.5835C34.5835 28.8598 34.6668 28.2693 34.8335 27.8937C35.0002 27.5181 35.3891 27.0254 36.0002 26.4154C36.8335 25.582 37.3891 24.9087 37.6668 24.3954C37.9446 23.882 38.0835 23.2776 38.0835 22.582C38.0835 21.332 37.6457 20.3115 36.7702 19.5204C35.8946 18.7293 34.7491 18.3331 33.3335 18.332C32.1946 18.332 31.2013 18.6515 30.3535 19.2904C29.5057 19.9293 28.9157 20.7765 28.5835 21.832L30.8335 22.7487C31.0835 22.0543 31.4241 21.5331 31.8552 21.1854C32.2863 20.8376 32.7791 20.6643 33.3335 20.6654C34.0002 20.6654 34.5418 20.8531 34.9585 21.2287C35.3752 21.6043 35.5835 22.1109 35.5835 22.7487C35.5835 23.1376 35.4724 23.5059 35.2502 23.8537C35.0279 24.2015 34.6391 24.6387 34.0835 25.1654C33.1668 25.9709 32.6046 26.6026 32.3968 27.0604C32.1891 27.5181 32.0846 28.3865 32.0835 29.6654ZM23.3335 39.9987C22.4168 39.9987 21.6318 39.672 20.9785 39.0187C20.3252 38.3654 19.9991 37.5809 20.0002 36.6654V16.6654C20.0002 15.7487 20.3268 14.9637 20.9802 14.3104C21.6335 13.657 22.4179 13.3309 23.3335 13.332H43.3335C44.2502 13.332 45.0352 13.6587 45.6885 14.312C46.3418 14.9654 46.6679 15.7498 46.6668 16.6654V36.6654C46.6668 37.582 46.3402 38.367 45.6868 39.0204C45.0335 39.6737 44.2491 39.9998 43.3335 39.9987H23.3335ZM16.6668 46.6654C15.7502 46.6654 14.9652 46.3387 14.3118 45.6854C13.6585 45.032 13.3324 44.2476 13.3335 43.332V19.9987H16.6668V43.332H40.0002V46.6654H16.6668Z" fill="white"/>
</svg>
