<svg width="25" height="25" viewBox="0 0 25 25" fill="none" xmlns="http://www.w3.org/2000/svg">
<path d="M16.9737 12.0547C16.9737 11.5047 16.5237 11.0547 15.9737 11.0547H12.9737C12.4237 11.0547 11.9737 11.5047 11.9737 12.0547C11.9737 12.6047 12.4237 13.0547 12.9737 13.0547H15.9737C16.5237 13.0547 16.9737 12.6047 16.9737 12.0547ZM12.9737 5.05469C16.8327 5.05469 19.9737 8.19569 19.9737 12.0547C19.9737 15.9137 16.8327 19.0547 12.9737 19.0547C9.11469 19.0547 5.97369 15.9137 5.97369 12.0547C5.97369 8.19569 9.11469 5.05469 12.9737 5.05469ZM12.9737 3.05469C8.00269 3.05469 3.97369 7.08369 3.97369 12.0547C3.97369 17.0257 8.00269 21.0547 12.9737 21.0547C17.9447 21.0547 21.9737 17.0257 21.9737 12.0547C21.9737 7.08369 17.9447 3.05469 12.9737 3.05469ZM13.9737 9.05469C13.9737 8.50469 13.5237 8.05469 12.9737 8.05469C12.4237 8.05469 11.9737 8.50469 11.9737 9.05469V12.0547C11.9737 12.6047 12.4237 13.0547 12.9737 13.0547C13.5237 13.0547 13.9737 12.6047 13.9737 12.0547V9.05469ZM12.9737 7.05469C15.7307 7.05469 17.9737 9.29769 17.9737 12.0547C17.9737 14.8117 15.7307 17.0547 12.9737 17.0547C10.2167 17.0547 7.97369 14.8117 7.97369 12.0547C7.97369 9.29769 10.2167 7.05469 12.9737 7.05469ZM12.9737 6.05469C11.3824 6.05469 9.85627 6.68683 8.73105 7.81205C7.60583 8.93727 6.97369 10.4634 6.97369 12.0547C6.97369 13.646 7.60583 15.1721 8.73105 16.2973C9.85627 17.4225 11.3824 18.0547 12.9737 18.0547C14.565 18.0547 16.0911 17.4225 17.2163 16.2973C18.3416 15.1721 18.9737 13.646 18.9737 12.0547C18.9737 10.4634 18.3416 8.93727 17.2163 7.81205C16.0911 6.68683 14.565 6.05469 12.9737 6.05469Z" fill="#BB5D06"/>
</svg>
